<?xml version="1.0" encoding="utf-8"?><svg xmlns="http://www.w3.org/2000/svg" xmlns:xlink="http://www.w3.org/1999/xlink"><symbol viewBox="0 0 16 16" id="facebook-line" xmlns="http://www.w3.org/2000/svg">
    <g clip-path="url(#aclip0_700738_521)">
        <path d="M10.665 2.65658H12.1257V0.112575C11.8737 0.0779084 11.007 -9.15527e-05 9.99767 -9.15527e-05C7.89167 -9.15527e-05 6.449 1.32458 6.449 3.75924V5.99991H4.125V8.84391H6.449V15.9999H9.29833V8.84458H11.5283L11.8823 6.00058H9.29767V4.04124C9.29833 3.21924 9.51967 2.65658 10.665 2.65658Z"/>
    </g>
    <defs>
        <clipPath id="aclip0_700738_521">
            <rect width="16" height="16"/>
        </clipPath>
    </defs>
</symbol><symbol viewBox="0 0 16 16" id="instagram-line" xmlns="http://www.w3.org/2000/svg">
    <g id="binstagram 2" clip-path="url(#bclip0_700738_509)">
        <path id="bVector" d="M15.9845 4.70395C15.9471 3.85381 15.8096 3.26935 15.6126 2.7629C15.4095 2.22532 15.0969 1.74402 14.6874 1.34392C14.2873 0.937592 13.8028 0.621856 13.2715 0.421866C12.7621 0.224928 12.1807 0.08745 11.3306 0.049967C10.4741 0.00930969 10.2022 -9.15527e-05 8.02988 -9.15527e-05C5.85758 -9.15527e-05 5.58568 0.00930969 4.73236 0.0467926C3.88222 0.0842755 3.29775 0.221876 2.79143 0.418691C2.25373 0.621856 1.77243 0.934417 1.37233 1.34392C0.966003 1.74402 0.650389 2.22849 0.450277 2.75985C0.25334 3.26935 0.115862 3.85064 0.0783789 4.70078C0.0377215 5.55727 0.0283203 5.82917 0.0283203 8.00147C0.0283203 10.1738 0.0377215 10.4457 0.0752044 11.299C0.112687 12.1491 0.250287 12.7336 0.447225 13.24C0.650389 13.7776 0.966003 14.2589 1.37233 14.659C1.77243 15.0654 2.2569 15.3811 2.78826 15.5811C3.29775 15.778 3.87904 15.9155 4.72931 15.953C5.5825 15.9906 5.85453 15.9999 8.02682 15.9999C10.1991 15.9999 10.471 15.9906 11.3243 15.953C12.1745 15.9155 12.7589 15.778 13.2653 15.5811C14.3406 15.1653 15.1907 14.3152 15.6064 13.24C15.8032 12.7305 15.9408 12.1491 15.9783 11.299C16.0158 10.4457 16.0252 10.1738 16.0252 8.00147C16.0252 5.82917 16.022 5.55727 15.9845 4.70395ZM14.5437 11.2365C14.5093 12.0179 14.378 12.4398 14.2686 12.7211C13.9998 13.4182 13.4466 13.9714 12.7495 14.2402C12.4682 14.3496 12.0432 14.4809 11.2649 14.5152C10.421 14.5528 10.1679 14.5621 8.03305 14.5621C5.89824 14.5621 5.64196 14.5528 4.8011 14.5152C4.0197 14.4809 3.59774 14.3496 3.31644 14.2402C2.96957 14.112 2.65383 13.9089 2.39756 13.6432C2.13188 13.3837 1.92871 13.0712 1.80052 12.7243C1.69112 12.443 1.55987 12.0179 1.52556 11.2397C1.48795 10.3957 1.47868 10.1425 1.47868 8.0077C1.47868 5.87288 1.48795 5.61661 1.52556 4.77587C1.55987 3.99446 1.69112 3.57251 1.80052 3.2912C1.92871 2.94421 2.13188 2.6286 2.40073 2.3722C2.66006 2.10652 2.97262 1.90336 3.31961 1.77528C3.60091 1.66588 4.02605 1.53463 4.80427 1.5002C5.64819 1.46272 5.90141 1.45332 8.0361 1.45332C10.1741 1.45332 10.4272 1.46272 11.2681 1.5002C12.0495 1.53463 12.4714 1.66588 12.7527 1.77528C13.0996 1.90336 13.4153 2.10652 13.6716 2.3722C13.9373 2.63165 14.1404 2.94421 14.2686 3.2912C14.378 3.57251 14.5093 3.99752 14.5437 4.77587C14.5812 5.61978 14.5906 5.87288 14.5906 8.0077C14.5906 10.1425 14.5812 10.3926 14.5437 11.2365Z"/>
        <path id="bVector_2" d="M8.0301 3.89127C5.76098 3.89127 3.91992 5.7322 3.91992 8.00144C3.91992 10.2707 5.76098 12.1116 8.0301 12.1116C10.2993 12.1116 12.1403 10.2707 12.1403 8.00144C12.1403 5.7322 10.2993 3.89127 8.0301 3.89127ZM8.0301 10.6676C6.55801 10.6676 5.36393 9.47365 5.36393 8.00144C5.36393 6.52923 6.55801 5.33527 8.0301 5.33527C9.50231 5.33527 10.6963 6.52923 10.6963 8.00144C10.6963 9.47365 9.50231 10.6676 8.0301 10.6676Z"/>
        <path id="bVector_3" d="M13.262 3.7288C13.262 4.25869 12.8323 4.68834 12.3023 4.68834C11.7724 4.68834 11.3428 4.25869 11.3428 3.7288C11.3428 3.19878 11.7724 2.76926 12.3023 2.76926C12.8323 2.76926 13.262 3.19878 13.262 3.7288Z"/>
    </g>
    <defs>
        <clipPath id="bclip0_700738_509">
            <rect width="16" height="16"/>
        </clipPath>
    </defs>
</symbol><symbol viewBox="0 0 16 16" id="linkedin-line" xmlns="http://www.w3.org/2000/svg">
    <g clip-path="url(#cclip0_700738_525)">
        <path d="M15.9959 16V15.9993H15.9999V10.1313C15.9999 7.26062 15.3819 5.04929 12.0259 5.04929C10.4125 5.04929 9.32985 5.93462 8.88785 6.77395H8.84118V5.31729H5.65918V15.9993H8.97252V10.71C8.97252 9.31729 9.23652 7.97062 10.9612 7.97062C12.6605 7.97062 12.6859 9.55995 12.6859 10.7993V16H15.9959Z"/>
        <path d="M0.263672 5.31787H3.58101V15.9999H0.263672V5.31787Z"/>
        <path d="M1.92133 -9.15527e-05C0.860667 -9.15527e-05 0 0.860575 0 1.92124C0 2.98191 0.860667 3.86058 1.92133 3.86058C2.982 3.86058 3.84267 2.98191 3.84267 1.92124C3.842 0.860575 2.98133 -9.15527e-05 1.92133 -9.15527e-05V-9.15527e-05Z"/>
    </g>
    <defs>
        <clipPath id="cclip0_700738_525">
            <rect width="16" height="16"/>
        </clipPath>
    </defs>
</symbol><symbol viewBox="0 0 16 16" id="twitter-line" xmlns="http://www.w3.org/2000/svg">
    <g clip-path="url(#dclip0_700738_515)">
        <path d="M16 3.03891C15.405 3.29991 14.771 3.47291 14.11 3.55691C14.79 3.15091 15.309 2.51291 15.553 1.74391C14.919 2.12191 14.219 2.38891 13.473 2.53791C12.871 1.89691 12.013 1.49991 11.077 1.49991C9.261 1.49991 7.799 2.97391 7.799 4.78091C7.799 5.04091 7.821 5.29091 7.875 5.52891C5.148 5.39591 2.735 4.08891 1.114 2.09791C0.831 2.58891 0.665 3.15091 0.665 3.75591C0.665 4.89191 1.25 5.89891 2.122 6.48191C1.595 6.47191 1.078 6.31891 0.64 6.07791C0.64 6.08791 0.64 6.10091 0.64 6.11391C0.64 7.70791 1.777 9.03191 3.268 9.33691C3.001 9.40991 2.71 9.44491 2.408 9.44491C2.198 9.44491 1.986 9.43291 1.787 9.38891C2.212 10.6879 3.418 11.6429 4.852 11.6739C3.736 12.5469 2.319 13.0729 0.785 13.0729C0.516 13.0729 0.258 13.0609 0 13.0279C1.453 13.9649 3.175 14.4999 5.032 14.4999C11.068 14.4999 14.368 9.49991 14.368 5.16591C14.368 5.02091 14.363 4.88091 14.356 4.74191C15.007 4.27991 15.554 3.70291 16 3.03891Z"/>
    </g>
    <defs>
        <clipPath id="dclip0_700738_515">
            <rect width="16" height="16"/>
        </clipPath>
    </defs>
</symbol></svg>