<?xml version="1.0" encoding="utf-8"?><svg viewBox="0 0 24 24" xmlns="http://www.w3.org/2000/svg" xmlns:xlink="http://www.w3.org/1999/xlink"><style>:root>svg{display:none}:root>svg:target{display:block}</style><svg fill="none" viewBox="0 0 24 24" id="bnt-line" xmlns="http://www.w3.org/2000/svg">
    <path d="M24 2 0 13.25l7.67 2.367L19.5 6.375l-8.998 10.116.007.003-.009-.003V22l4.301-4.182 5.45 1.682L24 2Z" fill="#fff"/>
</svg><svg fill="none" viewBox="0 0 16 16" id="facebook-line" xmlns="http://www.w3.org/2000/svg">
    <g clip-path="url(#ba)">
        <path d="M10.665 2.657h1.46V.113A18.862 18.862 0 0 0 9.999 0C7.892 0 6.449 1.325 6.449 3.76V6H4.125v2.844h2.324V16h2.85V8.845h2.23L11.881 6H9.298V4.04c0-.822.222-1.384 1.367-1.384Z" fill="#F4F4FD"/>
    </g>
    <defs>
        <clipPath id="ba">
            <path fill="#fff" d="M0 0h16v16H0z"/>
        </clipPath>
    </defs>
</svg><svg fill="none" viewBox="0 0 16 16" id="instagram-line" xmlns="http://www.w3.org/2000/svg">
    <g clip-path="url(#ca)" fill="#F4F4FD">
        <path d="M15.985 4.704c-.038-.85-.175-1.435-.372-1.941a3.904 3.904 0 0 0-.926-1.42 3.938 3.938 0 0 0-1.415-.921C12.761.225 12.18.087 11.33.05 10.474.01 10.202 0 8.03 0S5.586.01 4.732.047c-.85.037-1.434.175-1.94.372a3.904 3.904 0 0 0-1.42.925A3.94 3.94 0 0 0 .45 2.76C.253 3.27.116 3.85.078 4.7c-.04.857-.05 1.13-.05 3.301 0 2.173.01 2.445.047 3.298.038.85.175 1.435.372 1.941.203.538.519 1.019.925 1.419.4.406.885.722 1.416.922.51.197 1.091.335 1.941.372.853.038 1.126.047 3.298.047s2.444-.01 3.297-.047c.85-.037 1.435-.175 1.941-.372a4.092 4.092 0 0 0 2.341-2.341c.197-.51.335-1.09.372-1.941.038-.853.047-1.125.047-3.298 0-2.172-.003-2.444-.04-3.297Zm-1.441 6.532c-.035.782-.166 1.204-.275 1.485a2.653 2.653 0 0 1-1.52 1.52c-.28.109-.706.24-1.484.274-.844.038-1.097.047-3.232.047-2.135 0-2.391-.01-3.232-.047-.781-.034-1.203-.165-1.485-.275a2.462 2.462 0 0 1-.918-.597 2.488 2.488 0 0 1-.597-.919c-.11-.281-.241-.706-.275-1.484-.038-.844-.047-1.098-.047-3.232 0-2.135.009-2.391.047-3.232.034-.782.165-1.203.275-1.485.128-.347.33-.662.6-.919.26-.265.572-.469.919-.597.28-.11.706-.24 1.484-.275.844-.037 1.097-.047 3.232-.047 2.138 0 2.391.01 3.232.047.781.035 1.203.166 1.485.275.347.128.662.332.919.597.265.26.468.572.597.92.109.28.24.706.275 1.484.037.844.047 1.097.047 3.232 0 2.135-.01 2.385-.047 3.229Z"/>
        <path d="M8.03 3.891a4.111 4.111 0 0 0 0 8.22 4.111 4.111 0 0 0 0-8.22Zm0 6.777a2.667 2.667 0 1 1 0-5.334 2.667 2.667 0 0 1 0 5.334ZM13.262 3.729a.96.96 0 1 1-1.92 0 .96.96 0 0 1 1.92 0Z"/>
    </g>
    <defs>
        <clipPath id="ca">
            <path fill="#fff" d="M0 0h16v16H0z"/>
        </clipPath>
    </defs>
</svg><svg fill="none" viewBox="0 0 16 16" id="linkedin-line" xmlns="http://www.w3.org/2000/svg">
    <g clip-path="url(#da)" fill="#F4F4FD">
        <path d="M15.996 16H16V10.13c0-2.87-.618-5.082-3.974-5.082-1.614 0-2.696.886-3.138 1.725H8.84V5.317H5.66V16h3.314V10.71c0-1.393.264-2.74 1.988-2.74 1.7 0 1.725 1.59 1.725 2.83V16h3.31ZM.264 5.318H3.58V16H.264V5.318ZM1.921 0C.861 0 0 .86 0 1.92c0 1.06.86 1.94 1.921 1.94s1.922-.88 1.922-1.94C3.842.861 2.98 0 1.92 0Z"/>
    </g>
    <defs>
        <clipPath id="da">
            <path fill="#fff" d="M0 0h16v16H0z"/>
        </clipPath>
    </defs>
</svg><svg fill="none" viewBox="0 0 16 16" id="twitter-line" xmlns="http://www.w3.org/2000/svg">
    <g clip-path="url(#ea)">
        <path d="M16 3.039a6.839 6.839 0 0 1-1.89.518 3.262 3.262 0 0 0 1.443-1.813 6.555 6.555 0 0 1-2.08.794A3.28 3.28 0 0 0 7.799 4.78c0 .26.022.51.076.748a9.284 9.284 0 0 1-6.761-3.431 3.285 3.285 0 0 0 1.008 4.384A3.24 3.24 0 0 1 .64 6.078v.036a3.295 3.295 0 0 0 2.628 3.223 3.274 3.274 0 0 1-.86.108 2.9 2.9 0 0 1-.621-.056 3.311 3.311 0 0 0 3.065 2.285 6.59 6.59 0 0 1-4.067 1.399c-.269 0-.527-.012-.785-.045A9.234 9.234 0 0 0 5.032 14.5c6.036 0 9.336-5 9.336-9.334 0-.145-.005-.285-.012-.424A6.544 6.544 0 0 0 16 3.039Z" fill="#F4F4FD"/>
    </g>
    <defs>
        <clipPath id="ea">
            <path fill="#fff" d="M0 0h16v16H0z"/>
        </clipPath>
    </defs>
</svg></svg>